<?xml version="1.0" standalone="no"?>
<!DOCTYPE svg PUBLIC "-//W3C//DTD SVG 20010904//EN"
 "http://www.w3.org/TR/2001/REC-SVG-20010904/DTD/svg10.dtd">
<svg version="1.0" xmlns="http://www.w3.org/2000/svg"
 width="200.000000pt" height="80.000000pt" viewBox="0 0 200.000000 80.000000"
 preserveAspectRatio="xMidYMid meet">
<metadata>
Created by potrace 1.16, written by Peter Selinger 2001-2019
</metadata>
<g transform="translate(0.000000,80.000000) scale(0.015625,-0.014706)"
fill="#000000" stroke="none">
<path d="M8387 3748 c-19 -24 -42 -58 -51 -75 -9 -18 -37 -58 -62 -88 -54 -67
-59 -80 -68 -169 -9 -87 -24 -123 -85 -199 -26 -34 -55 -75 -64 -92 -23 -45
-56 -159 -67 -233 -20 -121 -60 -233 -104 -290 -23 -29 -49 -65 -59 -81 -34
-55 -67 -193 -77 -321 -6 -69 -15 -158 -20 -198 -6 -40 -10 -75 -10 -78 0 -2
-4 -4 -8 -4 -27 0 -52 201 -52 417 0 115 -1 122 -23 140 -21 16 -23 27 -23 83
1 52 -4 73 -23 103 -22 36 -23 45 -17 137 l7 98 -41 47 c-40 47 -41 49 -35
104 4 31 16 83 27 116 39 121 68 226 68 250 0 25 -33 55 -61 55 -38 0 -139
-155 -159 -244 -13 -57 -23 -78 -62 -128 -16 -20 -33 -52 -39 -70 -6 -18 -13
-40 -15 -48 -4 -10 -8 -7 -17 10 -9 18 -21 25 -40 25 -15 -1 -27 5 -27 11 0 7
-7 20 -16 28 -38 39 -90 -48 -126 -209 -34 -156 -87 -354 -114 -418 -32 -79
-41 -191 -24 -283 17 -85 17 -255 2 -309 -7 -22 -37 -73 -66 -113 -30 -40 -62
-96 -72 -124 -21 -65 -14 -160 21 -251 29 -79 31 -134 8 -218 -16 -58 -16 -64
0 -109 14 -38 17 -79 16 -199 -2 -133 0 -153 16 -171 47 -52 102 11 120 135 4
28 21 83 36 123 33 82 37 148 15 251 -20 95 4 166 90 262 l46 52 -7 87 c-5 69
-3 106 14 183 12 53 21 114 21 134 0 21 11 92 25 158 29 144 30 178 8 273 -14
61 -15 82 -5 125 20 86 39 150 58 192 l18 40 5 -40 c4 -22 3 -62 -1 -90 -11
-70 -1 -104 43 -152 22 -24 39 -50 39 -59 0 -10 18 -34 40 -54 39 -36 41 -42
59 -146 11 -63 31 -134 46 -168 31 -65 43 -131 53 -287 8 -118 15 -132 78
-160 l40 -18 13 -83 c14 -93 29 -127 67 -157 34 -27 49 -26 79 4 22 21 25 33
25 98 0 102 14 168 51 241 28 54 33 75 39 176 9 131 20 164 79 235 60 72 87
165 73 249 -10 65 -10 69 9 179 13 76 29 89 29 22 0 -38 6 -51 44 -94 24 -27
47 -58 50 -69 4 -10 -10 -70 -30 -133 -48 -148 -56 -264 -25 -357 16 -48 21
-87 21 -176 0 -135 21 -218 75 -293 54 -74 57 -86 40 -150 -28 -106 -16 -184
30 -205 22 -10 25 -17 25 -67 0 -69 22 -107 85 -151 l47 -33 -6 -66 c-6 -59
-4 -69 13 -85 16 -14 23 -15 40 -6 17 9 25 8 37 -5 20 -20 37 -19 58 4 13 14
14 24 6 45 -5 15 -10 53 -10 85 0 42 -7 71 -26 107 -14 27 -34 71 -45 98 -18
45 -19 52 -4 108 26 102 24 112 -48 217 -14 22 -16 39 -11 106 6 75 4 84 -25
145 -17 36 -31 73 -31 83 0 11 16 66 36 125 32 92 35 112 29 161 -9 73 -9 111
0 194 7 62 6 71 -16 100 -21 28 -24 44 -26 143 -2 92 -8 128 -33 206 -26 83
-30 110 -30 209 0 93 -6 139 -33 255 -33 140 -33 140 -21 252 16 142 24 170
91 326 63 147 73 194 49 231 -25 38 -58 33 -99 -17z m63 -35 c0 -16 -27 -90
-59 -165 -72 -167 -94 -258 -95 -403 -1 -90 4 -131 28 -225 23 -93 28 -137 28
-230 0 -99 4 -126 29 -202 24 -72 29 -107 32 -207 3 -111 5 -122 30 -159 l28
-39 -17 -77 c-14 -63 -15 -84 -6 -110 19 -53 14 -98 -24 -207 -41 -117 -40
-154 1 -228 23 -39 25 -53 23 -136 -3 -84 -1 -96 20 -122 53 -67 58 -86 40
-173 -20 -90 -16 -108 38 -213 43 -82 56 -172 24 -162 -12 4 -23 -1 -30 -12
-9 -14 -10 -8 -7 32 6 63 -1 75 -68 125 l-55 41 0 67 c0 74 -6 88 -41 106 -21
10 -24 20 -27 71 -2 37 3 75 13 101 19 51 13 86 -27 137 -16 20 -41 63 -56 95
-23 51 -27 74 -33 207 -4 103 -12 164 -23 195 -26 66 -18 191 19 305 16 50 30
113 33 141 4 50 2 53 -47 108 l-51 56 0 89 c0 97 -5 121 -25 121 -26 0 -44
-31 -70 -116 -33 -109 -44 -199 -32 -273 12 -72 -8 -148 -53 -207 -86 -112
-99 -152 -100 -298 0 -46 -8 -76 -37 -140 -32 -70 -38 -97 -47 -200 -7 -75
-15 -121 -23 -123 -19 -7 -42 50 -55 134 -14 96 -28 118 -81 136 l-42 14 -6
99 c-10 152 -25 233 -58 304 -20 43 -36 100 -46 168 -18 119 -24 134 -65 159
-20 12 -34 30 -40 55 -6 22 -24 47 -43 62 l-32 26 0 119 c0 108 -2 122 -21
141 -13 13 -27 18 -37 14 -27 -10 -64 -81 -88 -169 -40 -147 -41 -160 -19
-255 l21 -86 -26 -126 c-14 -69 -25 -143 -25 -164 0 -22 -8 -77 -16 -124 -9
-47 -18 -137 -21 -200 l-5 -115 -38 -41 c-46 -51 -87 -128 -96 -182 -3 -21 -1
-65 6 -98 21 -99 17 -172 -13 -235 -14 -31 -31 -85 -37 -120 -13 -75 -28 -119
-43 -119 -6 0 -7 49 -2 145 6 126 4 152 -11 195 -17 47 -17 53 -1 122 24 104
23 121 -27 253 -20 52 -20 150 -1 206 9 25 34 67 56 94 76 92 82 111 83 275 0
80 -3 190 -8 245 -8 97 -8 103 23 190 32 91 95 325 126 470 14 65 19 76 26 58
12 -32 23 -29 58 14 30 37 31 37 31 12 0 -14 9 -34 20 -44 30 -27 61 -1 84 71
10 33 36 81 57 108 28 35 42 65 51 110 8 38 30 89 58 135 84 139 91 99 20
-121 -29 -91 -40 -143 -40 -188 0 -58 3 -66 35 -102 l36 -39 -7 -97 c-6 -93
-5 -100 20 -149 24 -45 26 -58 20 -111 -6 -57 -5 -61 20 -77 25 -17 26 -20 26
-119 0 -171 19 -365 40 -406 13 -25 17 -49 13 -76 -4 -28 -1 -43 10 -52 23
-20 45 -4 71 51 26 55 40 141 56 352 6 80 17 147 35 202 25 79 33 93 102 183
35 45 85 192 102 298 21 134 56 222 121 302 65 81 87 134 97 239 5 52 12 71
39 105 18 22 57 78 86 123 29 46 56 83 61 83 4 0 7 -12 7 -27z"/>
<path d="M905 3543 c-16 -9 -68 -45 -113 -79 -116 -87 -155 -101 -245 -86 -64
11 -73 11 -113 -8 -24 -12 -64 -42 -89 -67 -33 -32 -51 -43 -63 -38 -38 16
-49 15 -67 -5 -12 -14 -20 -40 -23 -80 l-4 -59 51 -54 c57 -61 62 -84 36 -171
-33 -107 -16 -180 61 -266 75 -84 78 -96 58 -197 -13 -69 -14 -86 -3 -99 7 -9
12 -29 11 -45 -1 -16 5 -43 13 -59 13 -24 14 -38 5 -70 -14 -51 -5 -82 39
-138 32 -42 36 -54 37 -112 1 -45 11 -91 33 -150 36 -100 43 -218 15 -272 -20
-38 -13 -80 20 -119 13 -15 32 -52 41 -80 17 -50 17 -52 -5 -96 -35 -70 -25
-156 28 -259 23 -43 44 -91 47 -106 3 -15 15 -37 27 -48 19 -18 21 -30 21
-115 l-1 -96 39 -39 c37 -36 39 -42 39 -100 0 -66 17 -110 52 -134 28 -20 33
-20 52 0 12 11 16 36 16 98 0 79 1 83 31 112 60 57 72 105 40 158 -28 46 -34
97 -16 139 27 64 20 104 -35 192 -56 89 -62 123 -30 184 32 64 35 110 10 165
-22 46 -22 48 -5 86 18 39 18 40 -8 97 -30 69 -33 82 -24 110 15 41 37 36 99
-23 l59 -57 55 6 c64 7 75 -1 120 -79 35 -62 73 -104 94 -104 9 0 25 9 35 20
25 27 41 25 81 -9 19 -17 41 -28 51 -25 10 2 23 1 29 -3 16 -12 60 -92 74
-136 6 -21 23 -45 36 -54 22 -14 28 -14 71 2 55 21 53 22 108 -86 35 -68 81
-109 122 -109 25 0 36 -12 87 -103 34 -59 50 -76 98 -104 70 -41 93 -70 101
-127 9 -67 50 -149 88 -179 19 -14 50 -57 69 -94 29 -56 40 -69 62 -71 39 -5
48 25 43 137 -4 97 -26 165 -69 211 -34 36 -66 104 -66 139 0 65 -56 144 -111
156 -21 5 -36 21 -60 63 -38 69 -67 102 -89 102 -26 0 -46 29 -65 95 -22 79
-49 121 -98 153 -29 19 -47 43 -67 88 -50 110 -140 185 -197 163 -28 -10 -43
-5 -43 16 0 7 -12 27 -26 44 -26 31 -66 41 -79 21 -4 -6 -22 20 -40 58 -32 67
-78 118 -97 106 -5 -3 -16 0 -24 7 -13 11 -9 16 29 40 25 15 51 42 60 62 17
35 56 57 101 57 12 0 39 12 60 26 41 28 87 114 100 188 4 22 18 47 33 60 21
18 27 34 32 92 6 59 12 76 43 116 41 54 52 107 39 188 -7 41 -5 71 6 121 19
78 13 106 -29 155 l-33 37 4 104 3 104 -39 35 c-36 34 -41 35 -88 29 -104 -13
-99 -14 -106 32 -9 68 -30 83 -110 81 -57 -2 -72 1 -91 19 -13 11 -77 48 -143
81 -104 51 -130 60 -195 65 -59 5 -81 3 -105 -10z m263 -88 c61 -30 132 -68
158 -85 40 -25 58 -30 111 -30 l63 0 0 -40 c0 -30 7 -47 25 -65 28 -29 47 -31
105 -10 45 16 62 12 93 -23 17 -18 18 -32 12 -122 l-8 -101 38 -35 c37 -34 38
-35 29 -87 -4 -28 -8 -104 -9 -167 0 -120 -5 -137 -56 -201 -13 -16 -22 -47
-26 -85 -4 -47 -11 -64 -33 -84 -18 -18 -29 -40 -33 -70 -8 -58 -40 -130 -69
-157 -13 -11 -43 -24 -68 -28 -59 -10 -97 -33 -109 -66 -5 -15 -34 -46 -65
-68 -31 -23 -56 -49 -56 -59 1 -9 11 -30 24 -45 17 -21 30 -28 52 -25 27 3 31
-2 72 -84 47 -94 67 -111 93 -79 20 24 28 17 53 -42 18 -44 36 -53 75 -37 56
23 120 -34 162 -143 16 -42 31 -63 56 -78 51 -32 82 -69 94 -114 29 -109 39
-125 87 -148 37 -18 52 -33 78 -82 35 -64 65 -95 94 -95 28 0 70 -63 70 -105
0 -38 47 -142 75 -165 37 -31 57 -90 60 -184 l4 -91 -28 61 c-19 42 -39 68
-60 80 -37 22 -65 78 -80 160 -6 30 -17 64 -24 74 -19 27 -81 75 -116 90 -22
9 -41 32 -67 79 -55 99 -73 121 -97 121 -42 0 -82 36 -117 103 -19 37 -44 79
-56 94 -21 27 -23 27 -65 15 -78 -23 -69 -29 -110 68 -34 77 -64 110 -101 110
-19 0 -43 11 -65 30 -39 35 -71 38 -104 11 l-24 -19 -46 72 c-64 101 -88 118
-155 110 l-53 -7 -67 62 c-61 56 -69 60 -84 46 -9 -8 -21 -15 -26 -15 -13 0
-44 -64 -44 -90 0 -10 12 -46 26 -80 26 -60 27 -61 9 -99 -16 -37 -16 -40 4
-86 27 -61 26 -83 -5 -157 -34 -80 -29 -108 37 -216 l52 -84 -17 -53 c-23 -73
-20 -124 9 -179 29 -54 26 -67 -34 -129 -36 -38 -36 -39 -35 -118 1 -43 0 -79
-3 -79 -12 0 -33 76 -33 120 0 58 -11 86 -48 116 -24 19 -25 26 -26 122 -1 92
-3 103 -22 117 -12 8 -25 27 -28 42 -4 16 -25 65 -48 111 -51 99 -56 159 -20
233 l22 46 -20 58 c-11 32 -31 72 -43 89 -34 44 -36 57 -18 91 11 22 15 55 14
125 -1 79 -7 110 -33 183 -26 73 -30 98 -25 140 6 50 4 54 -37 107 -41 52 -43
58 -44 125 -1 73 -8 126 -25 185 -8 27 -7 50 5 98 22 82 11 122 -54 196 -28
32 -57 70 -65 86 -19 37 -19 126 0 180 29 81 22 113 -40 180 -54 59 -62 79
-49 128 6 19 11 22 40 16 31 -6 40 -2 84 40 64 60 130 89 167 75 86 -32 165
-6 316 106 87 64 90 65 151 65 56 0 75 -6 174 -55z"/>
<path d="M896 3095 c-16 -9 -49 -34 -74 -56 l-44 -41 -73 7 c-70 6 -73 6 -94
-21 -29 -37 -29 -111 1 -149 19 -25 22 -38 19 -111 l-2 -83 40 -43 c43 -45 50
-73 31 -124 -14 -37 2 -75 40 -98 29 -17 30 -20 30 -91 0 -68 2 -75 27 -95
l27 -21 -17 -47 c-23 -63 -22 -98 4 -116 23 -16 40 -13 81 16 29 20 49 16 91
-19 27 -22 30 -22 60 -6 17 9 43 28 57 43 31 33 112 70 154 70 57 0 116 79
116 154 0 48 23 94 73 149 38 41 46 58 52 103 5 45 3 60 -16 93 l-22 39 22 30
c11 17 21 33 21 37 0 4 -27 36 -60 72 -56 60 -60 67 -54 99 5 28 1 42 -21 74
-32 47 -56 56 -96 40 -40 -17 -74 -1 -92 42 -8 18 -20 38 -28 44 -8 6 -61 14
-119 18 -85 5 -111 3 -134 -9z m239 -72 c26 -60 83 -90 137 -71 28 10 34 8 50
-11 13 -17 16 -33 12 -60 -6 -35 -2 -42 52 -100 l58 -63 -19 -35 c-19 -35 -19
-35 4 -78 27 -52 22 -111 -12 -150 -74 -82 -83 -103 -102 -227 -6 -40 -35 -68
-70 -68 -39 0 -135 -47 -180 -89 l-46 -42 -30 25 c-35 30 -78 33 -114 10 -39
-26 -44 -13 -22 55 l22 63 -33 27 c-30 26 -32 31 -32 95 0 65 -2 70 -34 100
-34 30 -34 33 -29 91 4 50 2 66 -17 98 -12 21 -31 42 -43 48 -18 10 -19 18
-14 93 5 75 4 83 -19 111 -27 34 -33 95 -11 114 10 8 29 8 63 2 60 -11 97 2
161 59 l46 41 105 -5 c104 -4 105 -4 117 -33z"/>
<path d="M2100 3023 c-54 -20 -81 -83 -56 -131 15 -29 14 -34 -15 -96 -40 -86
-35 -119 23 -167 85 -69 122 -76 167 -31 23 22 30 42 40 112 6 47 14 99 17
115 8 42 -28 87 -61 79 -22 -5 -23 -4 -18 40 8 70 -33 102 -97 79z m55 -84 c0
-53 15 -77 53 -81 30 -3 30 4 12 -128 -18 -126 -54 -146 -134 -72 -44 40 -46
68 -10 147 22 47 24 61 15 81 -26 58 -5 107 44 101 17 -2 20 -10 20 -48z"/>
<path d="M11257 2992 c-14 -15 -15 -37 -10 -155 4 -95 3 -137 -5 -137 -39 0
-55 -91 -32 -185 6 -22 10 -89 10 -149 0 -128 11 -201 45 -285 19 -45 25 -79
25 -134 0 -67 3 -77 26 -101 15 -14 32 -26 39 -26 16 0 -1 -82 -42 -205 -18
-53 -27 -102 -28 -145 l0 -64 -101 -37 c-148 -53 -180 -81 -139 -122 12 -13 6
-20 -49 -56 -68 -44 -121 -98 -137 -138 -7 -20 -5 -33 12 -59 11 -18 18 -42
15 -51 -6 -20 -66 -79 -139 -138 -26 -21 -53 -49 -60 -61 -7 -12 -28 -33 -47
-46 -19 -13 -53 -50 -75 -83 -32 -46 -54 -66 -101 -90 -87 -45 -138 -83 -230
-168 -84 -79 -113 -131 -94 -168 14 -24 45 -32 71 -18 27 14 160 121 179 144
23 28 86 55 166 71 101 21 132 35 180 81 22 21 86 81 141 134 69 65 110 113
128 150 29 57 59 98 136 187 28 31 50 67 53 87 9 47 44 86 124 136 133 83 198
138 226 188 43 79 90 114 209 156 58 20 150 103 179 159 25 50 36 59 113 95
33 15 80 45 105 67 25 21 77 57 115 79 88 51 277 230 273 258 -5 31 -32 44
-65 30 -143 -58 -183 -80 -236 -124 -33 -27 -79 -59 -101 -71 -23 -11 -56 -31
-74 -45 -17 -13 -56 -32 -85 -42 -29 -10 -71 -28 -94 -40 -23 -11 -63 -25 -90
-31 -30 -7 -60 -23 -82 -43 -29 -28 -33 -29 -26 -10 14 48 7 82 -25 133 -19
29 -34 63 -35 75 0 13 -9 33 -20 45 -16 18 -19 34 -16 93 1 39 -1 109 -5 156
-6 82 -8 88 -43 121 -28 26 -45 57 -68 125 -18 50 -34 106 -38 125 -18 93
-106 300 -142 333 -19 16 -20 16 -36 -1z m96 -207 c16 -44 33 -102 38 -130 4
-27 24 -93 43 -145 27 -71 44 -102 68 -122 l33 -27 5 -159 c4 -134 8 -163 23
-179 9 -11 17 -29 17 -41 0 -12 17 -47 37 -78 l36 -55 -15 -47 c-9 -26 -22
-62 -29 -79 -31 -76 43 -64 111 17 29 35 50 50 76 55 20 3 62 18 93 32 31 14
80 33 108 43 29 11 68 30 85 43 18 14 51 34 73 45 22 11 72 45 110 76 39 31
93 63 120 72 28 10 61 24 75 32 14 8 -14 -23 -61 -69 -47 -46 -116 -102 -154
-124 -38 -22 -89 -57 -114 -78 -25 -21 -71 -49 -101 -64 -83 -39 -108 -60
-135 -113 -30 -59 -100 -122 -157 -140 -105 -33 -199 -104 -239 -182 -20 -39
-95 -101 -195 -161 -77 -46 -139 -113 -155 -166 -7 -23 -42 -76 -85 -127 -41
-48 -88 -116 -106 -152 -18 -35 -41 -68 -53 -74 -11 -6 -68 -59 -128 -117 -59
-58 -117 -109 -130 -114 -12 -5 -56 -15 -97 -24 -91 -19 -140 -43 -201 -97
-118 -106 -169 -142 -169 -120 0 25 43 79 107 134 83 71 107 87 198 135 56 29
73 47 138 139 10 15 36 35 57 46 25 13 42 30 46 45 3 13 45 58 94 100 74 65
98 92 117 136 1 3 -7 22 -17 42 -11 20 -20 43 -20 51 0 19 91 98 160 139 65
38 79 72 34 83 l-27 7 29 15 c16 8 65 28 109 44 124 45 125 46 125 126 0 47 8
91 26 143 14 41 34 111 44 157 16 73 16 84 3 97 -8 8 -25 15 -37 15 -22 0 -23
5 -29 88 -4 65 -13 102 -33 147 -25 55 -28 75 -35 225 -4 91 -12 185 -18 210
-15 68 -14 110 4 110 27 0 37 51 33 172 l-3 117 19 -37 c11 -20 33 -73 49
-117z"/>
<path d="M3562 2950 c-18 -15 -29 -17 -42 -10 -14 7 -24 4 -44 -17 -26 -25
-26 -28 -26 -165 0 -147 -12 -229 -56 -371 -14 -45 -31 -112 -39 -149 -7 -37
-20 -83 -29 -103 -10 -19 -22 -60 -29 -91 -14 -67 2 -107 45 -112 22 -3 34 6
65 47 43 56 58 64 49 24 -4 -16 -11 -57 -15 -93 -13 -95 -22 -133 -38 -155
-18 -27 -16 -75 3 -96 15 -17 15 -29 -11 -166 -15 -81 -36 -170 -47 -198 -12
-27 -23 -78 -26 -111 -4 -56 -2 -65 23 -98 15 -20 35 -36 44 -36 29 0 59 42
85 116 13 38 31 85 39 104 7 19 27 99 42 178 26 130 31 142 50 142 12 0 32 11
45 25 31 32 37 32 53 -7 8 -18 24 -42 37 -53 33 -30 80 -129 95 -203 11 -52
22 -73 53 -106 46 -47 66 -84 83 -149 6 -26 31 -76 54 -112 25 -37 46 -82 49
-105 3 -22 15 -60 26 -84 11 -25 20 -55 20 -68 0 -32 18 -48 53 -48 23 0 31 6
40 30 6 17 17 28 23 26 19 -7 45 29 51 72 4 29 -5 72 -36 167 -49 151 -58 188
-70 293 -7 65 -15 92 -45 140 -20 33 -41 84 -46 113 -17 87 -40 111 -118 124
-41 7 -46 12 -115 111 -97 140 -127 189 -127 207 0 29 45 64 119 92 98 37 152
90 176 170 19 66 50 101 135 149 32 18 67 49 85 74 16 24 65 78 108 120 92 89
98 115 30 120 -63 5 -155 -48 -313 -179 -73 -60 -138 -109 -144 -108 -31 4
-49 -5 -104 -51 -48 -40 -136 -90 -158 -90 -3 0 -9 11 -14 25 -7 19 -5 38 11
78 15 38 19 65 15 102 -12 118 -23 192 -30 203 -4 7 0 38 10 70 23 79 24 170
1 205 -21 33 -61 36 -95 7z m66 -89 c2 -44 -3 -82 -17 -122 -18 -54 -18 -63
-5 -94 8 -19 14 -57 14 -84 0 -27 5 -53 10 -56 16 -10 11 -71 -11 -127 -16
-42 -19 -64 -13 -115 8 -80 22 -92 63 -58 17 15 46 31 65 36 20 5 65 34 102
64 47 39 75 55 96 55 30 0 63 24 187 135 61 55 191 139 231 149 19 5 9 -8 -42
-56 -36 -35 -78 -82 -92 -105 -18 -30 -46 -54 -96 -83 -75 -44 -124 -99 -136
-153 -17 -81 -70 -128 -190 -167 -56 -19 -67 -27 -89 -64 -14 -24 -25 -48 -25
-55 0 -30 196 -320 234 -347 11 -8 33 -14 49 -14 42 0 73 -37 80 -96 5 -31 19
-68 40 -99 41 -61 57 -105 57 -159 0 -54 22 -144 69 -291 36 -111 44 -155 29
-171 -3 -3 -9 8 -13 25 -9 41 -30 58 -51 40 -12 -10 -14 -23 -9 -57 4 -25 9
-51 12 -58 3 -8 1 -14 -5 -14 -5 0 -13 17 -17 37 -4 21 -12 49 -19 63 -7 14
-16 45 -20 70 -4 27 -23 70 -47 107 -22 34 -46 83 -53 110 -18 66 -41 108 -88
159 -32 35 -43 56 -49 95 -10 66 -56 162 -102 217 -21 24 -37 50 -37 58 0 18
-36 54 -54 54 -8 0 -28 -12 -45 -26 -19 -16 -39 -24 -51 -21 -33 8 -46 -23
-79 -187 -17 -87 -42 -184 -55 -215 -14 -31 -27 -67 -30 -81 -3 -14 -12 -34
-21 -45 l-15 -20 -16 20 c-19 25 -13 78 21 185 13 41 29 109 35 150 7 41 16
91 21 110 13 52 11 94 -6 116 -18 24 -19 43 -2 63 15 17 37 110 42 170 1 20 6
60 10 88 14 96 -30 111 -97 33 -53 -62 -73 -66 -63 -13 4 21 17 63 30 93 12
30 25 79 29 109 4 30 14 70 22 90 8 20 29 92 47 161 28 109 32 142 33 265 1
177 -1 167 27 160 15 -4 32 1 48 14 41 35 54 24 57 -48z"/>
<path d="M10639 2815 c-15 -8 -34 -31 -44 -52 -10 -21 -37 -78 -61 -128 -26
-52 -49 -117 -56 -155 -6 -36 -17 -77 -25 -93 -7 -15 -20 -67 -27 -116 -7 -48
-17 -94 -22 -102 -4 -8 -11 -50 -14 -94 l-5 -80 -45 -5 c-25 -3 -56 -13 -70
-22 -14 -9 -43 -19 -65 -23 -49 -8 -65 -21 -65 -49 0 -41 27 -66 73 -66 28 0
61 -11 96 -30 30 -17 65 -30 78 -30 27 0 27 1 7 -39 -9 -17 -19 -56 -23 -87
-4 -30 -13 -60 -19 -66 -17 -17 -14 -67 7 -114 17 -36 17 -43 4 -68 -10 -20
-13 -43 -8 -80 16 -131 16 -204 1 -263 -19 -71 -20 -223 -3 -272 17 -47 40
-60 66 -37 12 11 21 27 21 36 0 10 11 47 24 82 23 62 37 145 55 343 6 62 15
101 30 126 22 37 29 102 17 156 -5 21 -2 41 8 62 11 21 16 58 16 126 0 52 3
95 7 95 4 0 25 -12 47 -27 34 -24 50 -28 117 -29 64 -1 84 -6 110 -25 43 -30
128 -38 152 -14 9 9 17 25 17 35 0 10 12 25 26 34 19 14 24 24 22 48 -4 40
-41 68 -99 75 -28 3 -54 15 -71 31 -22 20 -41 27 -90 30 -46 4 -66 10 -78 25
-14 17 -27 19 -93 18 -48 -1 -77 3 -77 9 0 6 11 36 24 68 26 61 50 149 60 220
4 24 15 61 26 83 31 59 27 121 -11 163 l-30 35 21 40 c11 23 34 62 50 88 65
102 13 189 -81 138z m66 -62 c-3 -16 -26 -61 -51 -101 -51 -84 -56 -121 -19
-158 31 -31 33 -77 6 -142 -11 -26 -27 -85 -36 -131 -9 -45 -29 -116 -46 -157
-35 -89 -35 -98 -8 -125 20 -20 29 -21 96 -15 74 6 75 6 69 -17 -3 -12 -1 -28
3 -36 8 -12 15 -11 46 4 47 22 99 15 134 -18 15 -15 44 -27 71 -31 45 -7 94
-35 75 -42 -38 -15 -76 -47 -71 -59 9 -25 -47 -18 -90 11 -21 15 -48 26 -59
25 -92 -6 -130 -1 -165 24 -43 30 -80 32 -103 7 -13 -15 -16 -37 -15 -108 2
-69 -2 -99 -16 -128 -15 -33 -16 -45 -7 -76 17 -57 13 -87 -15 -136 -20 -34
-28 -65 -34 -141 -16 -183 -30 -270 -55 -339 l-24 -69 0 100 c0 55 6 127 14
160 19 77 19 183 1 227 -11 26 -12 44 -5 74 6 21 13 49 16 61 3 13 -1 38 -10
55 -25 55 -25 62 -6 100 11 21 19 54 19 75 1 21 7 49 15 63 16 28 19 78 6 98
-4 8 -21 12 -37 11 -16 -2 -51 8 -79 21 -27 13 -70 26 -94 29 -57 8 -65 28
-14 36 21 3 50 13 65 21 14 8 42 14 62 14 26 0 44 7 61 25 26 26 29 36 26 102
-2 24 6 60 18 88 12 26 21 68 21 94 1 25 9 71 20 101 11 30 27 89 36 130 9 42
35 112 60 161 24 47 44 89 44 94 0 18 34 45 58 45 21 0 23 -3 17 -27z"/>
<path d="M9546 2599 c-24 -19 -27 -28 -25 -73 1 -28 -4 -98 -10 -156 -7 -58
-16 -145 -21 -195 -5 -49 -13 -106 -18 -126 -18 -69 4 -140 48 -154 30 -10 34
-47 11 -100 -25 -57 -27 -115 -5 -157 14 -27 15 -39 4 -82 -6 -28 -11 -62 -11
-76 1 -14 1 -73 1 -132 0 -103 1 -108 24 -124 61 -39 104 6 116 122 4 43 17
104 29 134 11 30 20 77 21 103 l0 48 49 -50 c28 -27 67 -75 87 -108 20 -32 49
-71 64 -88 32 -35 48 -83 48 -145 0 -25 8 -62 16 -82 9 -21 16 -46 16 -56 0
-42 32 -123 61 -151 36 -37 68 -39 97 -8 30 32 28 81 -8 165 -28 65 -30 80
-30 187 0 112 -1 118 -35 185 -19 37 -39 71 -45 75 -5 3 -10 33 -10 66 0 73
-29 128 -96 188 -24 21 -44 45 -44 54 0 8 18 22 40 31 22 9 58 29 81 45 22 16
54 33 72 37 42 9 81 39 112 86 43 65 32 171 -24 222 -12 11 -21 24 -21 30 0 6
-9 22 -19 36 -18 22 -18 27 -4 53 34 67 -22 122 -121 119 -44 -1 -71 4 -100
19 -24 12 -48 18 -62 15 -29 -8 -95 -74 -136 -138 -17 -26 -34 -45 -39 -43 -4
3 -10 31 -14 63 -13 123 -16 140 -36 161 -25 26 -30 26 -63 0z m54 -141 c24
-213 39 -230 106 -115 42 71 100 144 126 158 15 8 26 6 46 -7 19 -12 50 -19
101 -20 93 -3 111 -16 86 -64 -16 -32 -16 -34 11 -84 15 -28 40 -66 56 -84 23
-27 28 -42 28 -87 0 -47 -4 -58 -33 -88 -18 -20 -50 -40 -73 -46 -22 -6 -55
-22 -74 -36 -19 -14 -53 -34 -75 -44 -56 -25 -77 -52 -73 -92 2 -26 12 -39 42
-59 21 -15 53 -51 72 -80 31 -49 33 -59 28 -102 -6 -42 -3 -52 20 -83 54 -71
66 -111 66 -233 0 -100 3 -121 29 -190 39 -101 43 -132 17 -132 -21 0 -45 43
-61 112 -8 35 -21 84 -29 110 -8 25 -12 56 -9 67 9 36 -18 109 -57 154 -20 23
-45 57 -54 74 -9 18 -43 61 -75 95 l-59 63 -3 92 c-6 133 -39 159 -86 69 -13
-24 -16 -57 -14 -153 2 -107 0 -128 -19 -170 -12 -26 -24 -77 -27 -113 -6 -93
-11 -110 -31 -110 -15 0 -17 13 -16 138 1 75 6 151 12 168 7 22 6 41 -5 70
-25 67 -26 90 -4 139 33 75 29 108 -20 147 -41 33 -41 33 -36 88 3 30 10 80
16 110 12 62 30 232 38 364 7 106 19 96 33 -26z"/>
<path d="M9845 2313 c-29 -7 -54 -32 -76 -76 -11 -21 -30 -42 -43 -47 -44 -17
-48 -70 -8 -108 15 -15 38 -44 51 -64 34 -57 71 -48 125 31 26 37 28 46 22 97
-6 54 -6 56 29 87 39 34 45 61 16 77 -20 10 -79 12 -116 3z m48 -65 c-28 -31
-35 -57 -23 -97 11 -38 -3 -72 -40 -106 -18 -16 -24 -17 -28 -6 -2 8 -20 31
-38 51 -40 45 -42 53 -10 68 14 6 32 23 40 37 9 14 23 36 31 50 12 19 24 25
52 25 l36 0 -20 -22z"/>
<path d="M2144 2445 c-10 -8 -33 -15 -51 -15 -40 0 -54 -24 -46 -73 3 -22 -2
-65 -13 -108 l-18 -71 27 -24 c34 -29 34 -46 1 -120 -38 -84 -36 -122 5 -169
33 -38 33 -40 26 -104 -4 -36 -7 -79 -6 -96 2 -97 11 -168 23 -182 9 -11 15
-59 18 -149 5 -128 6 -135 32 -160 32 -32 69 -28 86 11 7 14 12 72 12 128 0
86 4 111 26 162 34 81 41 149 20 199 -22 53 -20 73 14 131 47 79 36 133 -34
172 -30 17 -32 91 -6 188 22 81 22 87 6 128 -9 23 -16 65 -16 93 0 27 -5 55
-12 62 -17 17 -70 15 -94 -3z m58 -74 c-1 -23 4 -54 13 -71 19 -36 19 -72 0
-134 -32 -106 -11 -223 43 -240 36 -12 35 -38 -5 -113 l-38 -71 25 -71 24 -70
-28 -78 c-23 -63 -30 -102 -35 -200 -6 -114 -13 -145 -27 -130 -13 13 -24 88
-24 175 0 63 -5 102 -15 122 -16 31 -16 36 -15 236 l1 122 -30 35 c-37 42 -38
66 -6 135 33 71 34 134 1 159 -22 18 -22 20 -10 63 8 25 14 68 14 97 0 40 3
51 14 47 7 -3 29 4 47 15 19 12 39 19 44 17 6 -2 9 -22 7 -45z"/>
<path d="M9011 2435 c-47 -15 -126 -85 -162 -143 -12 -18 -41 -46 -65 -63 -56
-38 -88 -87 -107 -162 -9 -32 -28 -74 -43 -94 -43 -56 -44 -109 -3 -180 l34
-58 -3 -128 c-4 -156 4 -177 70 -177 28 0 51 -8 73 -24 18 -14 43 -28 56 -31
13 -3 32 -19 41 -35 20 -35 59 -47 103 -31 17 6 48 11 69 11 54 0 128 42 180
102 149 173 162 197 154 273 -4 29 -21 66 -53 114 l-48 71 28 73 c36 91 42
158 20 217 -9 25 -21 65 -26 90 -12 56 -63 111 -139 150 -70 35 -123 43 -179
25z m148 -63 c20 -9 55 -34 79 -56 33 -32 42 -47 42 -73 0 -19 7 -44 16 -58 8
-13 18 -47 21 -77 4 -44 0 -66 -26 -130 -17 -42 -31 -85 -31 -95 0 -10 23 -54
51 -97 47 -71 51 -82 46 -123 -3 -25 -14 -57 -26 -72 -12 -14 -45 -57 -73 -94
-59 -79 -119 -118 -193 -128 -27 -4 -64 -10 -82 -14 -28 -6 -33 -4 -47 23 -11
21 -27 34 -52 41 -20 6 -45 18 -56 28 -11 10 -42 20 -71 23 l-52 5 0 140 0
140 -33 57 c-38 66 -36 87 13 160 18 25 35 65 39 89 10 60 40 105 92 135 25
15 51 38 59 53 28 50 102 122 141 137 43 15 87 11 143 -14z"/>
<path d="M8928 2148 c-38 -41 -43 -55 -39 -115 2 -25 -7 -43 -38 -81 -48 -57
-56 -89 -42 -167 12 -66 40 -102 80 -107 19 -2 31 -14 46 -46 34 -70 45 -77
112 -66 49 8 60 13 71 36 11 23 10 36 -9 90 -21 63 -21 79 2 154 17 57 6 88
-45 124 -25 16 -47 39 -51 50 -3 11 1 46 11 79 20 73 15 91 -27 91 -25 0 -41
-10 -71 -42z m56 -25 c-4 -10 -10 -42 -12 -72 l-4 -53 56 -53 57 -52 -21 -52
c-26 -66 -25 -93 2 -159 19 -46 20 -55 8 -62 -23 -15 -80 -12 -80 3 0 27 -62
97 -93 105 -36 9 -44 30 -46 108 -1 46 3 55 45 104 42 49 45 57 40 93 -5 30
-2 47 15 73 21 35 48 48 33 17z"/>
<path d="M2872 2411 c-65 -22 -108 -62 -119 -108 -7 -32 -14 -37 -72 -58 -89
-33 -111 -57 -121 -137 -4 -35 -18 -84 -30 -108 -12 -23 -26 -70 -30 -103 -6
-42 -16 -68 -33 -86 -38 -40 -67 -93 -67 -123 0 -31 23 -58 51 -58 19 0 19 -1
-1 -37 -23 -44 -26 -96 -6 -112 8 -7 37 -14 64 -15 28 -2 55 -7 61 -11 6 -3
11 -27 11 -52 0 -37 5 -50 30 -73 24 -22 30 -36 30 -70 0 -55 24 -100 54 -100
31 0 58 33 94 111 40 89 63 112 106 103 37 -6 63 4 111 44 25 21 36 23 78 18
62 -7 106 11 141 56 36 47 44 93 21 118 -23 25 -52 25 -90 0 -43 -28 -75 -25
-131 15 -55 39 -70 42 -102 20 -16 -12 -27 -13 -41 -5 -32 17 -55 12 -105 -22
-38 -24 -52 -29 -65 -21 -25 17 -16 58 29 132 48 81 50 110 10 148 -16 15 -30
34 -30 41 0 25 37 66 112 126 93 75 130 121 122 152 -7 27 2 30 119 38 47 3
88 11 102 20 69 45 86 102 40 132 -21 14 -41 16 -111 10 -76 -6 -87 -4 -106
14 -27 25 -57 25 -126 1z m120 -48 c15 -14 35 -16 103 -14 96 3 110 -2 95 -29
-13 -25 -58 -38 -164 -49 -80 -8 -91 -12 -120 -40 -28 -29 -30 -33 -14 -45 15
-11 15 -14 -5 -37 -12 -14 -55 -52 -95 -84 -122 -97 -154 -168 -92 -203 16 -9
32 -23 35 -31 3 -8 -13 -44 -35 -81 -64 -107 -63 -171 6 -202 21 -10 30 -7 67
19 49 36 63 40 96 29 14 -5 39 -3 61 4 36 12 40 11 84 -19 57 -40 114 -44 157
-12 36 27 39 26 39 -5 0 -15 -12 -38 -29 -55 -26 -26 -35 -28 -93 -27 -57 1
-68 -2 -116 -35 -42 -29 -58 -35 -72 -27 -10 6 -25 10 -33 10 -27 0 -89 -74
-122 -146 -19 -41 -38 -74 -43 -74 -12 0 -22 35 -22 78 0 24 -8 41 -31 62 -28
25 -31 32 -25 64 6 32 3 40 -23 66 -24 24 -38 30 -75 30 -24 0 -48 5 -51 10
-4 6 6 36 20 68 39 83 45 108 31 128 -11 15 -16 13 -51 -17 l-38 -34 7 30 c4
17 16 41 27 55 53 67 70 101 79 151 4 30 16 72 25 93 9 21 21 64 25 94 13 77
30 98 96 117 63 18 104 53 104 88 0 30 24 52 76 71 53 20 94 19 116 -1z"/>
<path d="M6135 2404 c-24 -26 -55 -102 -55 -136 0 -10 -9 -44 -20 -75 -11 -32
-20 -69 -20 -83 0 -14 -9 -42 -20 -63 -11 -21 -27 -70 -35 -109 -9 -40 -17
-73 -18 -74 -1 -1 -15 -9 -32 -17 -39 -21 -94 -70 -144 -130 -38 -45 -41 -46
-41 -23 0 14 4 45 10 68 23 102 60 309 60 337 0 46 -26 81 -60 81 -35 0 -60
-30 -89 -107 -13 -32 -33 -82 -47 -111 -13 -29 -24 -61 -24 -72 0 -11 -4 -20
-10 -20 -5 0 -10 8 -10 18 0 26 -29 50 -65 54 -28 3 -31 7 -47 73 -10 39 -26
81 -36 95 -22 29 -63 37 -84 16 -18 -17 -31 -178 -22 -260 6 -48 3 -60 -21
-102 l-28 -47 -17 34 c-9 19 -20 54 -24 79 -4 25 -13 65 -21 90 -14 45 -29
138 -45 285 -13 109 -17 123 -40 130 -49 16 -95 -40 -123 -150 -12 -44 -17
-50 -46 -56 -45 -9 -54 -21 -90 -112 -34 -87 -36 -106 -19 -171 14 -52 -3
-124 -59 -243 -36 -78 -42 -137 -18 -169 8 -11 14 -41 15 -71 0 -44 4 -55 24
-68 31 -20 61 -7 70 31 4 14 16 39 28 54 15 21 19 38 15 63 -4 27 0 43 20 72
13 20 26 52 28 70 2 19 13 48 25 65 l22 30 29 -20 c23 -17 35 -41 60 -123 63
-201 115 -272 162 -219 23 25 28 76 19 182 -5 52 -7 97 -5 99 11 14 32 -41 33
-85 0 -42 5 -55 29 -78 34 -32 56 -29 85 11 16 21 19 43 19 117 0 50 -3 104
-8 120 l-8 29 26 -19 c27 -19 79 -99 139 -213 18 -35 41 -69 51 -75 24 -15 50
2 62 42 11 40 25 41 25 4 0 -39 29 -67 108 -103 91 -41 143 -37 189 16 l32 37
6 -28 c9 -46 38 -96 67 -118 34 -24 70 -15 101 25 18 25 18 32 8 94 -7 37 -25
100 -41 141 -28 69 -30 84 -30 203 0 110 4 142 26 217 39 132 39 133 14 180
-26 46 -26 45 15 195 18 63 18 68 2 93 -23 35 -69 35 -102 0z m68 -27 c3 -8
-4 -40 -15 -73 -31 -92 -35 -165 -10 -206 20 -33 20 -33 1 -93 -36 -112 -41
-150 -40 -291 2 -134 3 -145 37 -239 41 -115 44 -178 7 -183 -27 -4 -51 30
-64 90 -14 63 -30 98 -44 98 -15 0 -40 -30 -67 -79 -15 -27 -23 -31 -59 -31
-55 0 -158 47 -165 76 -3 11 -1 65 5 119 11 91 14 100 49 141 34 40 148 134
163 134 11 0 21 32 25 80 3 24 15 68 28 96 13 28 27 71 31 95 4 24 13 64 20
89 7 25 18 68 24 95 7 28 19 60 27 73 16 25 39 29 47 9z m-1083 -145 c0 -32 7
-83 15 -114 8 -31 17 -87 21 -125 4 -37 13 -85 20 -107 8 -21 14 -51 14 -66 0
-15 11 -52 24 -81 21 -47 25 -75 31 -221 3 -95 3 -168 -2 -168 -11 0 -70 124
-78 165 -3 17 -17 60 -31 98 -19 50 -33 71 -54 82 -15 8 -30 22 -34 30 -3 9
-13 15 -22 13 -21 -4 -94 -125 -94 -155 0 -14 -12 -40 -26 -58 -22 -29 -25
-41 -19 -74 4 -25 2 -41 -5 -46 -7 -4 -19 -24 -29 -44 l-16 -36 -3 49 c-2 27
-10 59 -18 70 -21 31 -17 70 15 134 16 31 41 96 55 143 27 85 27 88 11 143
l-16 55 33 83 c30 74 37 83 62 85 41 3 54 18 76 92 25 82 40 111 57 111 9 0
13 -16 13 -58z m655 -111 c3 -10 -5 -76 -19 -147 -43 -229 -57 -323 -60 -404
-2 -36 -9 -78 -17 -93 l-15 -28 -42 80 c-52 99 -83 148 -115 181 -13 14 -34
42 -46 63 -13 20 -27 37 -31 37 -28 0 -42 -120 -19 -161 11 -22 3 -156 -11
-179 -16 -27 -40 9 -40 59 0 29 -7 57 -20 76 -26 40 -25 95 3 142 20 35 22 52
23 191 1 84 5 156 8 160 14 13 38 -28 52 -89 20 -84 37 -109 75 -109 19 0 32
-6 35 -17 18 -55 29 -75 46 -84 27 -15 45 3 53 54 4 23 18 62 30 87 12 25 28
63 35 85 17 55 49 115 60 115 5 0 11 -8 15 -19z"/>
<path d="M5975 1700 c-10 -12 -30 -26 -43 -33 -14 -7 -30 -29 -38 -52 -18 -52
-17 -70 2 -100 26 -39 65 -33 113 17 56 59 65 123 23 171 -20 22 -35 22 -57
-3z"/>
<path d="M5021 2032 c-17 -33 -53 -147 -53 -171 -1 -30 20 -43 46 -29 16 9 23
7 34 -11 30 -45 69 -7 58 58 -4 20 -10 59 -15 86 -4 28 -11 58 -16 68 -9 22
-42 22 -54 -1z"/>
</g>
</svg>
